<svg width="100%" height="960px" viewBox="0 0 960 960" version="1.1" preserveAspectRatio="xMidYMid meet" xmlns="http://www.w3.org/2000/svg" xmlns:xlink="http://www.w3.org/1999/xlink">
  <title>helix-line</title>
  <path class="clr-i-outline clr-i-outline-path-1" d="M236.8 348.534a24 24 0 0 1 -13.066 -44.267l238.133 -152.8a24 24 0 1 1 26.666 40.533L249.867 344.534A24 24 0 0 1 236.8 348.534Z"/>
  <path class="clr-i-outline clr-i-outline-path-2" d="M353.334 402.933a24 24 0 0 1 -13.066 -44.267L480 268.8a24 24 0 1 1 26.666 40.533L366.4 400A24 24 0 0 1 353.334 402.933Z"/>
  <path class="clr-i-outline clr-i-outline-path-3" d="M525.866 806.134a24 24 0 0 1 -13.066 -44.267l238.133 -152.8a24 24 0 0 1 26.666 40.533L538.667 802.4A24 24 0 0 1 525.866 806.134Z"/>
  <path class="clr-i-outline clr-i-outline-path-4" d="M504.534 691.734a24 24 0 0 1 -13.066 -44.267l140 -89.867a24 24 0 1 1 26.666 40.267L517.333 688A23.733 23.733 0 0 1 504.534 691.734Z"/>
  <path class="clr-i-outline clr-i-outline-path-5" d="M574.933 151.733a95.734 95.734 0 0 1 4 94.133L502.134 400h60l64.8 -129.867a149.6 149.6 0 0 0 -133.333 -217.066H353.6l-26.666 53.334h165.867A96.266 96.266 0 0 1 574.933 151.733Z"/>
  <path class="clr-i-outline clr-i-outline-path-1" d="M877.6 554.134A147.466 147.466 0 0 0 737.6 453.334H248.267a94.4 94.4 0 0 1 -94.933 -97.867 96.266 96.266 0 0 1 11.2 -41.066l113.6 -226.4a26.666 26.666 0 1 0 -47.733 -24L117.334 289.067A151.2 151.2 0 0 0 106.666 405.866 147.466 147.466 0 0 0 247.466 506.666h202.667l-91.734 183.2a150.4 150.4 0 0 0 40 184.534A143.466 143.466 0 0 0 490.933 906.667h140l26.666 -53.334H491.466a95.466 95.466 0 0 1 -85.867 -138.934L509.6 506.666h227.733a91.2 91.2 0 0 1 57.334 18.933 95.2 95.2 0 0 1 26.666 118.133l-109.867 219.2a26.666 26.666 0 1 0 47.733 24l108.266 -216A151.2 151.2 0 0 0 877.6 554.134Z" fill="url(#paint0_linear)"/>
  <defs>
    <linearGradient id="paint0_linear" gradientUnits="userSpaceOnUse">
      <stop stop-color="#0AB1BE"/>
      <stop offset="1" stop-color="#DE1E3D"/>
    </linearGradient>
  </defs>
</svg>
